<svg width="796" height="532" viewBox="0 0 796 532" fill="none" xmlns="http://www.w3.org/2000/svg">
<g clip-path="url(#clip0_66_3840)">
<path d="M483.212 523C619.497 523 729.978 491.383 729.978 452.381C729.978 413.379 619.497 381.762 483.212 381.762C346.926 381.762 236.445 413.379 236.445 452.381C236.445 491.383 346.926 523 483.212 523Z" fill="#F5F5F5"/>
<path d="M717.995 177.666C717.995 177.666 674.282 221.45 698.959 286.419C723.636 351.389 656.656 459.436 656.656 459.436C656.656 459.436 657.361 459.33 658.708 459.097C748.489 443.222 793.097 340.372 743.173 263.97C724.637 235.567 709.373 202.242 717.995 177.666Z" fill="#2091F9"/>
<path d="M717.995 177.666C717.995 177.666 693.319 231.337 717.995 275.12C742.672 318.904 722.226 441.781 656.656 459.436" stroke="#535461" stroke-width="2" stroke-miterlimit="10"/>
<path d="M795.843 354.757C795.843 354.757 745.961 346.799 741.414 391.578C736.866 436.358 645.527 442.558 645.527 442.558C645.527 442.558 646.12 442.967 647.241 443.702C722.681 493.305 794.8 475.297 783.935 409.43C779.867 384.947 780.191 360.35 795.843 354.757Z" fill="#2091F9"/>
<path opacity="0.2" d="M795.843 354.757C795.843 354.757 745.961 346.799 741.414 391.578C736.866 436.358 645.527 442.558 645.527 442.558C645.527 442.558 646.12 442.967 647.241 443.702C722.681 493.305 794.8 475.297 783.935 409.43C779.867 384.947 780.191 360.35 795.843 354.757Z" fill="#F5F5F5"/>
<path d="M795.844 354.757C795.844 354.757 757.123 363.274 760.303 398.541C763.483 433.808 702.778 476.067 645.5 442.544" stroke="#535461" stroke-width="2" stroke-miterlimit="10"/>
<path opacity="0.2" d="M225.745 9.05639C220.062 8.85866 214.239 9.05639 208.908 11.0478C194.406 16.4643 187.531 34.1826 189.766 49.5281C192.001 64.8736 201.195 78.1994 210.735 90.4094C220.274 102.619 230.61 114.674 235.841 129.25C238.45 136.531 239.67 144.687 237.019 151.954C232.929 163.161 220.598 169.425 208.76 170.724C196.923 172.024 185.036 169.489 173.156 168.606C168.171 168.253 163.045 168.21 158.35 169.849C153.196 171.635 148.902 175.279 144.954 179.079C129.548 193.979 117.217 214.317 119.212 235.673C121.469 259.881 141.591 279.019 163.63 289.279C170.928 292.683 178.648 295.437 185.071 300.296C201.992 313.106 205.792 337.11 204.107 358.302C202.422 379.495 196.683 400.709 199.877 421.718C203.635 446.152 220.267 468.221 242.701 478.531C262.689 487.712 287.704 487.14 305.451 474.153C314.101 467.797 320.644 459.033 326.334 449.945C334.922 436.233 341.89 421.568 347.098 406.246C349.572 398.965 351.899 391.133 357.673 386.07C361.199 382.956 365.767 381.211 370.287 379.855C383.908 375.773 398.256 374.651 412.004 371.021C425.753 367.391 439.586 360.626 447.059 348.529C457.635 331.361 452.7 309.406 452.749 289.209C452.833 243.194 480.323 201.994 490.469 157.151C493.783 142.491 495.016 126.27 487.613 113.198C482.579 104.279 474.098 97.9233 465.179 92.9799C445.579 82.0764 423.299 77.2249 401.379 72.5005C370.914 65.947 333.92 65.0996 310.308 43.8998C287.648 23.5615 256.647 9.05639 225.745 9.05639Z" fill="#2091F9"/>
<g opacity="0.5">
<path opacity="0.5" d="M336.254 187.164C336.252 176.073 334.518 165.05 331.114 154.496L322.654 128.219C322.654 127.781 322.654 127.35 322.654 126.919C322.915 110.077 309.808 101.673 304.76 102.584C299.592 103.516 285.251 96.3132 285.251 96.3132V96.5109C284.268 95.3772 283.381 94.163 282.6 92.8811C285.078 91.0736 287.17 88.7882 288.753 86.1593C290.336 83.5304 291.379 80.6111 291.82 77.5728C292.26 74.5345 292.09 71.4386 291.32 68.467C290.549 65.4955 289.192 62.7083 287.331 60.2693C288.881 59.1028 290.063 57.5142 290.736 55.6932C291.907 52.3953 291.011 48.6313 289.107 45.6935C288.298 44.4672 287.352 43.3371 286.287 42.325C284.675 40.7249 282.914 39.2824 281.028 38.0172C276.325 34.7546 271.157 31.9511 265.517 30.9553C264.541 30.7245 263.524 30.7245 262.548 30.9553C261.701 31.2977 260.895 31.7336 260.144 32.2547C256.281 34.4581 251.472 33.5047 247.016 33.2716C242.56 33.0386 237.146 34.2886 235.735 38.4763C235.298 39.7686 235.327 41.1668 235.03 42.4945C234.325 45.743 231.822 48.264 229.891 50.9688C227.959 53.6735 226.513 57.3245 228.121 60.2622C228.671 61.2509 229.531 62.1619 229.531 63.2918C229.531 64.1039 229.052 64.8313 228.826 65.6081C228.34 67.3735 229.256 69.139 230.666 70.4172C231.274 71.0734 231.989 71.6203 232.781 72.0344C235.016 73.1784 237.59 73.5315 239.867 74.5908C241.004 75.1255 242.047 75.841 242.955 76.7094C244.068 77.8763 244.938 79.2534 245.514 80.7604C246.09 82.2675 246.361 83.8743 246.311 85.4873L246.784 85.5367C246.784 85.678 246.784 85.8122 246.784 85.9534C247.277 86.0099 247.799 86.0593 248.313 86.0805C249.054 87.2776 249.901 88.4051 250.845 89.449C250.685 90.0516 250.504 90.6637 250.302 91.2851C248.645 92.4362 235.094 101.475 219.682 99.3004C203.233 96.977 193.827 169.008 193.827 169.008C193.218 173.128 192.921 177.287 192.939 181.451C192.869 192.044 195.089 205.907 207.463 203.866L214.041 201.698V237.325C214.041 237.325 214.979 247.085 211.693 253.567C208.408 260.05 222.036 257.748 222.036 257.748C222.036 257.748 222.558 258.292 223.517 259.217L223.214 260.071L223.616 260.481C221.823 266.619 219.406 272.556 216.403 278.199L216.791 278.397C216.544 278.87 216.403 279.103 216.403 279.103C216.403 279.103 221.465 281.695 228.431 285.035C234.029 303.989 246.283 347.886 242.25 356.247L242.363 356.488C243.117 358.055 247.333 367.299 246.48 375.767C245.712 383.337 256.175 417.735 260.081 430.228L258.234 430.602L264.812 454.302L263.401 469.64C263.401 469.64 255.413 491.017 274.21 486.836C293.006 482.655 287.838 465.46 287.838 465.46L288.311 430.602C288.311 430.602 286.499 429.592 284.264 428.625C282.727 424.465 279.378 414.635 279.378 407.835C279.378 399.007 273.265 360.894 273.265 360.894V360.816V360.668V360.626L273.23 360.117V360.033C273.23 359.559 273.152 358.91 273.096 358.119V358.076C272.391 347.773 270.276 312.767 271.82 294.519C273.178 293.592 274.59 292.748 276.05 291.991C280.626 303.573 292.421 334.864 291.667 347.992C290.729 364.234 291.434 351.481 291.667 349.404C291.737 348.762 291.787 349.539 291.808 351.283C291.808 351.601 291.808 351.954 291.808 352.328C291.808 352.702 291.808 353.119 291.808 353.55C291.808 353.981 291.808 354.447 291.808 354.962C291.808 355.207 291.808 355.456 291.808 355.711C291.808 356.219 291.808 356.751 291.808 357.307C291.808 357.584 291.808 357.867 291.808 358.154C291.808 359.567 291.808 361.134 291.758 362.766C291.758 363.09 291.758 363.42 291.758 363.754C291.758 364.75 291.758 365.767 291.709 366.798C291.709 368.21 291.653 369.58 291.625 371C291.554 374.178 291.462 377.391 291.35 380.399C291.35 380.733 291.338 381.065 291.314 381.395C291.291 382.054 291.265 382.699 291.237 383.33C291.209 383.961 291.18 384.577 291.152 385.18C291.124 385.778 291.093 386.359 291.06 386.924C291.025 387.588 290.983 388.224 290.948 388.831L288.395 388.464L287.853 394.339C286.997 403.668 288.201 413.07 291.378 421.881C292.252 424.296 292.929 426.294 293.077 427.008C293.549 429.331 293.077 446.075 293.077 446.075C293.077 446.075 295.897 467.917 309.06 463.729C314.983 461.844 317.859 456.11 319.234 450.361C320.76 443.698 320.191 436.725 317.605 430.397C315.737 425.694 313.826 419.098 315.173 414C317.521 405.172 317.521 392.623 317.521 392.623L316.069 392.418C316.43 391.729 316.758 391.022 317.049 390.3C317.049 390.3 316.576 358.232 320.806 354.051C323.133 351.749 322.922 346.22 322.217 341.7C321.209 335.159 320.973 328.523 321.511 321.927C321.801 318.53 322.217 315.571 322.703 314.519C323.944 312.061 325.185 287.288 319.692 275.368L320.821 275.014L320.644 274.139L320.821 274.082C321.649 276.297 322.59 278.468 323.641 280.586C323.918 280.804 324.237 280.963 324.578 281.052C339.8 278.376 340.414 264.146 339.568 256.378C340.209 256.689 340.562 256.887 340.562 256.887L341.972 236.407C343.417 233.137 343.953 228.964 343.918 224.451C343.981 208.322 336.254 187.164 336.254 187.164ZM319.474 245.376C318.43 236.456 316.985 228.06 316.985 228.06L309.935 202.962V193.824L321.117 235.63L319.474 245.376Z" fill="url(#paint0_linear_66_3840)"/>
</g>
<path d="M287.774 382.468L287.252 388.21C286.429 397.332 287.596 406.525 290.672 415.151C291.511 417.516 292.166 419.466 292.307 420.165C292.759 422.439 292.307 438.787 292.307 438.787C292.307 438.787 295.029 460.135 307.727 456.046C313.438 454.21 316.187 448.596 317.541 442.982C319.009 436.47 318.458 429.666 315.962 423.477C314.157 418.879 312.31 412.418 313.614 407.453C315.884 398.824 315.884 386.564 315.884 386.564L287.774 382.468Z" fill="#5A5773"/>
<path d="M274.172 283.912C274.172 283.912 291.854 327.061 290.945 342.95C290.035 358.839 290.719 346.354 290.945 344.313C291.347 340.676 290.945 383.859 289.584 388.803C289.584 388.803 308.176 402.425 315.431 384.262C315.431 384.262 314.98 352.928 319.055 348.839C321.297 346.594 321.079 341.184 320.416 336.771C319.438 330.386 319.201 323.91 319.711 317.471C319.986 314.151 320.367 311.228 320.86 310.232C322.221 307.506 323.582 276.625 315.417 267.995L274.172 283.912Z" fill="#605D82"/>
<path opacity="0.1" d="M291.855 388.824C293.216 383.831 293.618 340.676 293.216 344.334C292.99 346.375 292.306 358.867 293.216 342.971C294.125 327.075 276.443 283.934 276.443 283.934L316.003 268.694C315.82 268.461 315.629 268.242 315.439 268.037L274.18 283.934C274.18 283.934 291.862 327.082 290.953 342.971C290.043 358.86 290.727 346.375 290.953 344.334C291.355 340.697 290.953 383.881 289.592 388.824C289.592 388.824 297.016 394.262 304.313 393.683C297.82 393.195 291.855 388.824 291.855 388.824Z" fill="black"/>
<path d="M258.754 423.794L265.099 446.957L263.739 461.943C263.739 461.943 256.032 482.832 274.166 478.743C292.3 474.654 287.315 457.854 287.315 457.854L287.767 423.794C287.767 423.794 280.512 419.706 277.339 420.165C274.166 420.624 258.754 423.794 258.754 423.794Z" fill="#5A5773"/>
<path d="M227.473 273.016C227.473 273.016 248.328 340.683 243.343 351.128C243.343 351.128 248.328 361.12 247.425 370.195C246.523 379.269 261.935 427.869 261.935 427.869L284.61 423.78C284.61 423.78 279.167 410.158 279.167 401.528C279.167 392.899 273.272 355.626 273.272 355.626C273.272 355.626 268.288 287.5 274.182 280.233L227.473 273.016Z" fill="#605D82"/>
<g opacity="0.1">
<path opacity="0.1" d="M272.421 285.77C268.663 301.193 272.816 357.949 272.816 357.949C272.816 357.949 278.71 395.187 278.71 403.852C278.71 410.44 281.876 419.932 283.378 424.056L284.604 423.837C284.604 423.837 279.162 410.214 279.162 401.585C279.162 392.955 273.267 355.683 273.267 355.683C273.267 355.683 269.474 303.813 272.421 285.77Z" fill="black"/>
<path opacity="0.1" d="M243.344 351.128L243.457 351.361C243.492 351.128 243.527 350.881 243.548 350.655C243.488 350.816 243.42 350.974 243.344 351.128Z" fill="black"/>
<path opacity="0.1" d="M273.153 282.465C273.359 281.681 273.705 280.942 274.175 280.283L227.473 273.016C227.473 273.016 227.748 273.899 228.22 275.474L273.153 282.465Z" fill="black"/>
</g>
<path d="M336.288 248.49C336.288 248.49 343.092 273.913 322.688 277.557C322.357 277.471 322.047 277.317 321.778 277.105C321.778 277.105 309.99 253.942 319.057 244.86L336.288 248.49Z" fill="#FAC3CA"/>
<path d="M252.861 79.5625C252.861 79.5625 254.222 98.6296 239.261 107.718C224.3 116.807 270.988 141.778 270.988 141.778L295.474 102.718C295.474 102.718 285.054 104.067 278.708 85.9182L252.861 79.5625Z" fill="#FAC3CA"/>
<path opacity="0.1" d="M242.882 109.067C242.882 109.067 266.008 157.208 286.863 111.793L319.056 271.646C319.056 271.646 269.174 287.09 268.729 294.357C268.285 301.624 218.41 275.742 218.41 275.742C218.41 275.742 229.289 255.757 226.575 243.497C223.86 231.238 242.882 109.067 242.882 109.067Z" fill="black"/>
<path d="M242.882 108.156C242.882 108.156 266.008 156.297 286.863 110.882L319.056 270.742C319.056 270.742 269.174 286.186 268.729 293.453C268.285 300.72 218.41 274.831 218.41 274.831C218.41 274.831 229.289 254.846 226.575 242.586C223.86 230.327 242.882 108.156 242.882 108.156Z" fill="#E1E7EF"/>
<path d="M265.56 436.513C265.56 436.513 259.666 423.343 273.266 423.343C286.866 423.343 284.603 435.15 284.603 435.15L265.56 436.513Z" fill="#5A5773"/>
<path d="M296.392 402.446C296.392 402.446 290.949 388.365 304.556 387.913C318.163 387.461 311.36 400.624 311.36 400.624L296.392 402.446Z" fill="#5A5773"/>
<path opacity="0.1" d="M284.828 97.9233C284.828 97.9233 298.654 104.985 303.646 104.053C308.638 103.121 321.78 111.772 320.877 129.031L329.07 154.779C332.347 165.103 334.012 175.872 334.005 186.705C334.005 186.705 345.794 219.402 339.448 233.935L338.087 253.921C338.087 253.921 327.66 248.017 316.774 249.832L319.516 233.512L307.249 187.179L286.845 137.675L284.828 97.9233Z" fill="black"/>
<path d="M284.828 97.0264C284.828 97.0264 298.654 104.088 303.646 103.156C308.638 102.224 321.78 110.875 320.877 128.134L329.07 153.882C332.347 164.206 334.012 174.975 334.005 185.809C334.005 185.809 345.794 218.505 339.448 233.038L338.087 253.024C338.087 253.024 327.66 247.12 316.774 248.935L319.495 232.587L307.249 186.268L286.866 136.764L284.828 97.0264Z" fill="#67647E"/>
<path opacity="0.1" d="M307.728 152.208V203.527L314.532 228.053C314.532 228.053 319.065 254.846 317.704 263.023C316.344 271.201 294.579 273.016 288.685 266.201C282.791 259.387 285.963 201.232 285.963 201.232L284.828 116.101L285.738 113.375L307.728 152.208Z" fill="black"/>
<path d="M308.658 149.941V201.26L315.461 225.786C315.461 225.786 319.995 252.579 318.634 260.757C317.273 268.934 295.509 270.749 289.614 263.935C283.72 257.12 286.893 198.965 286.893 198.965L285.758 113.813L308.658 149.941Z" fill="#67647E"/>
<path opacity="0.1" d="M217.27 192.63L231.779 237.827L224.976 257.127C224.976 257.127 257.168 291.186 277.572 274.838C277.572 274.838 279.842 205.349 275.302 189.001C270.761 172.652 249.004 117.676 249.004 117.676L244.498 103.163L220.47 116.786L217.27 192.63Z" fill="black"/>
<path d="M216.133 190.356V234.846C216.133 234.846 217.043 244.387 213.863 250.743C210.683 257.098 223.839 254.832 223.839 254.832C223.839 254.832 256.032 288.891 276.436 272.543C276.436 272.543 278.706 203.054 274.166 186.705C269.625 170.357 247.867 115.38 247.867 115.38L243.334 100.847L219.306 114.469L216.133 190.356Z" fill="#67647E"/>
<path opacity="0.1" d="M251.273 92.9448C251.273 92.9448 237.447 103.163 221.577 100.889C205.706 98.6155 196.639 169.016 196.639 169.016C196.639 169.016 190.745 205.349 209.788 202.171L251.957 188.09C251.957 188.09 242.89 178.549 244.251 166.29L223.84 174.46L224.756 135.408L251.273 92.9448Z" fill="black"/>
<path opacity="0.1" d="M197.541 168.105C197.541 168.105 191.647 204.438 210.69 201.26L252.859 187.179C252.859 187.179 243.792 177.645 245.153 165.379L224.756 173.556L197.541 168.105Z" fill="black"/>
<path d="M244.152 170.166C244.152 170.166 258.303 151.53 268.723 160.478C279.144 169.425 247.889 185.823 247.889 185.823L244.152 170.166Z" fill="#FAC3CA"/>
<path d="M251.273 92.0337C251.273 92.0337 237.447 102.252 221.577 99.9783C205.706 97.7044 196.639 168.104 196.639 168.104C196.639 168.104 190.745 204.438 209.788 201.26L251.957 187.179C251.957 187.179 242.89 177.638 244.251 165.379L223.84 173.556L224.756 134.497L247.882 115.43L251.273 92.0337Z" fill="#67647E"/>
<path opacity="0.1" d="M279.159 86.8081L253.312 80.4524C253.312 80.4524 254.658 81.9778 253.086 87.9451C257.246 92.726 262.357 99.0746 269.182 99.0746C274.066 99.0838 278.821 97.5052 282.733 94.5762C281.273 92.1193 280.075 89.5157 279.159 86.8081Z" fill="black"/>
<path d="M268.729 98.1706C281.252 98.1706 291.403 88.0026 291.403 75.4596C291.403 62.9166 281.252 52.7485 268.729 52.7485C256.206 52.7485 246.055 62.9166 246.055 75.4596C246.055 88.0026 256.206 98.1706 268.729 98.1706Z" fill="#FAC3CA"/>
<path opacity="0.1" d="M277.325 65.601C282.585 64.7041 288.367 62.3666 290.129 57.3244C291.257 54.0972 290.397 50.425 288.557 47.5508C286.717 44.6766 284.009 42.4662 281.217 40.4889C276.684 37.2969 271.685 34.5569 266.228 33.5965C265.287 33.3712 264.306 33.3712 263.366 33.5965C262.547 33.9319 261.769 34.3583 261.046 34.8676C257.316 37.0215 252.677 36.0893 248.355 35.8633C244.033 35.6374 238.851 36.8591 237.49 40.9479C237.067 42.212 237.096 43.5749 236.785 44.8743C236.08 48.0522 233.69 50.5238 231.85 53.1721C230.01 55.8203 228.593 59.4007 230.144 62.2537C230.673 63.2211 231.554 64.1109 231.554 65.2126C231.418 65.9956 231.181 66.7576 230.849 67.4795C230.207 69.824 232.076 72.1897 234.233 73.3055C236.39 74.4213 238.872 74.7673 241.072 75.8054C243.131 76.8231 244.855 78.4116 246.038 80.3821C247.222 82.3526 247.816 84.6222 247.749 86.9208C249.751 87.1539 252.085 87.2739 253.438 85.7768C254.045 85.1059 254.341 84.2091 254.891 83.4958C255.596 82.5637 256.696 82.0128 257.598 81.2643C262.343 77.359 258.973 71.9638 261.659 67.7549C263.069 65.5869 265.311 66.2507 267.582 66.286C270.844 66.3624 274.106 66.1331 277.325 65.601Z" fill="black"/>
<path d="M276.872 65.1491C282.132 64.2522 287.913 61.9147 289.676 56.8725C290.804 53.6453 289.944 49.9731 288.104 47.0989C286.264 44.2247 283.556 42.0143 280.764 40.037C276.231 36.845 271.232 34.105 265.775 33.1446C264.834 32.9193 263.853 32.9193 262.912 33.1446C262.094 33.48 261.316 33.9064 260.593 34.4157C256.863 36.5696 252.224 35.6374 247.902 35.4114C243.58 35.1855 238.398 36.4072 237.037 40.496C236.614 41.7601 236.642 43.123 236.332 44.4224C235.627 47.6003 233.237 50.0719 231.397 52.7202C229.557 55.3684 228.14 58.9488 229.691 61.8018C230.219 62.7692 231.101 63.659 231.101 64.7607C230.965 65.5437 230.728 66.3057 230.396 67.0276C229.754 69.3721 231.622 71.7378 233.78 72.8536C235.937 73.9694 238.419 74.3154 240.619 75.3535C242.686 76.3701 244.417 77.9618 245.605 79.9381C246.793 81.9143 247.387 84.1915 247.317 86.4972C249.319 86.7302 251.653 86.8503 253.007 85.3532C253.613 84.6823 253.909 83.7854 254.459 83.0722C255.164 82.14 256.264 81.5892 257.166 80.8406C261.911 76.9354 258.541 71.5401 261.227 67.3312C262.637 65.1632 264.88 65.827 267.15 65.8623C270.406 65.9281 273.661 65.6894 276.872 65.1491Z" fill="#4A4347"/>
<path opacity="0.1" d="M304.32 141.538C304.32 141.538 309.305 167.426 307.042 177.419C305.659 183.232 305.864 189.311 307.634 195.017" fill="black"/>
<path opacity="0.1" d="M223.74 152.434C223.74 152.434 221.569 169.693 225.186 173.323L223.74 152.434Z" fill="black"/>
<path d="M350.347 365.131C350.627 365.131 350.896 365.02 351.094 364.821C351.293 364.622 351.404 364.353 351.404 364.072C351.404 363.791 351.293 363.522 351.094 363.323C350.896 363.124 350.627 363.013 350.347 363.013C350.066 363.013 349.797 363.124 349.599 363.323C349.4 363.522 349.289 363.791 349.289 364.072C349.289 364.353 349.4 364.622 349.599 364.821C349.797 365.02 350.066 365.131 350.347 365.131Z" fill="black"/>
<g opacity="0.5">
<path opacity="0.5" d="M675.986 241.725V241.139L483.621 92.9802C483.5 92.8901 483.353 92.8416 483.202 92.8416C483.051 92.8416 482.904 92.8901 482.782 92.9802L290.41 241.139V470.792H290.777V471.159H676.36V241.506L675.986 241.725Z" fill="url(#paint1_linear_66_3840)"/>
</g>
<path d="M669.347 464.386H297.082V242.643L483.214 99.2864L669.347 242.643V464.386Z" fill="white"/>
<path d="M655.949 451.244H310.477V245.46L483.213 112.421L655.949 245.46V451.244Z" fill="#E0E0E0"/>
<path d="M541.816 109.347L331.078 164.683L401.343 433.144L612.082 377.807L541.816 109.347Z" fill="#2091F9"/>
<path d="M593.199 150.132H375.34V427.665H593.199V150.132Z" fill="#F5F5F5"/>
<path opacity="0.05" d="M298.844 242.996L484.976 353.868L298.844 464.739V242.996Z" fill="black"/>
<path d="M297.434 242.996L483.566 353.868L297.434 464.739V242.996Z" fill="white"/>
<path opacity="0.05" d="M668.289 242.996L482.156 353.868L668.289 464.739V242.996Z" fill="black"/>
<path d="M669.699 242.996L483.566 353.868L669.699 464.739V242.996Z" fill="white"/>
<path opacity="0.05" d="M297.434 461.208L483.566 315.733L669.698 461.208H297.434Z" fill="black"/>
<path d="M297.434 464.739L483.566 319.264L669.698 464.739H297.434Z" fill="white"/>
<path d="M335.258 481.582C335.258 481.582 325.909 449.804 337.014 426.4C341.732 416.618 343.154 405.566 341.068 394.904C340.038 389.852 338.549 384.904 336.619 380.124" stroke="#535461" stroke-width="2" stroke-miterlimit="10"/>
<path d="M343.523 365.336C343.523 369.234 336.472 380.526 336.472 380.526C336.472 380.526 329.422 369.227 329.422 365.336C329.422 363.463 330.165 361.667 331.487 360.343C332.809 359.018 334.602 358.274 336.472 358.274C338.342 358.274 340.136 359.018 341.458 360.343C342.78 361.667 343.523 363.463 343.523 365.336Z" fill="#6C63FF"/>
<path d="M355.192 386.917C353.077 390.187 341.035 395.837 341.035 395.837C341.035 395.837 341.254 382.518 343.369 379.248C344.423 377.769 346.006 376.755 347.789 376.415C349.571 376.075 351.416 376.437 352.939 377.425C354.462 378.413 355.546 379.951 355.965 381.719C356.385 383.487 356.108 385.349 355.192 386.917Z" fill="#6C63FF"/>
<path d="M354.654 423.787C351.178 425.539 337.938 424.331 337.938 424.331C337.938 424.331 344.84 412.947 348.309 411.196C349.139 410.731 350.055 410.439 351 410.337C351.946 410.236 352.903 410.327 353.813 410.606C354.722 410.884 355.567 411.345 356.294 411.958C357.022 412.572 357.617 413.328 358.046 414.178C358.474 415.029 358.727 415.958 358.787 416.909C358.848 417.86 358.716 418.813 358.399 419.711C358.082 420.61 357.587 421.435 356.943 422.136C356.3 422.838 355.521 423.402 354.654 423.795V423.787Z" fill="#6C63FF"/>
<path d="M347.999 451.604C344.868 453.921 331.613 454.966 331.613 454.966C331.613 454.966 336.492 442.579 339.623 440.263C341.129 439.256 342.964 438.869 344.748 439.181C346.531 439.492 348.127 440.48 349.204 441.938C350.281 443.396 350.756 445.213 350.532 447.012C350.307 448.812 349.4 450.456 347.999 451.604Z" fill="#6C63FF"/>
<path d="M326.222 396.585C329.042 399.297 342.008 402.114 342.008 402.114C342.008 402.114 338.828 389.184 336.036 386.472C334.678 385.27 332.91 384.638 331.099 384.707C329.288 384.776 327.573 385.541 326.31 386.843C325.047 388.145 324.333 389.885 324.317 391.7C324.3 393.515 324.983 395.267 326.222 396.592V396.585Z" fill="#6C63FF"/>
<path d="M318.846 429.218C322.322 430.969 335.563 429.762 335.563 429.762C335.563 429.762 328.661 418.378 325.192 416.627C323.535 415.877 321.654 415.797 319.94 416.404C318.226 417.01 316.813 418.256 315.994 419.881C315.175 421.507 315.015 423.386 315.546 425.127C316.078 426.868 317.26 428.336 318.846 429.225V429.218Z" fill="#6C63FF"/>
<path d="M316.024 461.915C319.155 464.231 332.41 465.276 332.41 465.276C332.41 465.276 327.531 452.89 324.4 450.573C323.661 449.968 322.807 449.519 321.89 449.254C320.972 448.99 320.011 448.914 319.064 449.033C318.116 449.151 317.203 449.461 316.379 449.944C315.554 450.426 314.837 451.072 314.269 451.84C313.701 452.609 313.295 453.485 313.076 454.416C312.856 455.347 312.828 456.312 312.992 457.254C313.156 458.196 313.509 459.095 314.031 459.896C314.552 460.697 315.23 461.384 316.024 461.915Z" fill="#6C63FF"/>
<path opacity="0.5" d="M475.457 162.844H388.031V169.905H475.457V162.844Z" fill="#6C63FF"/>
<path opacity="0.5" d="M576.984 191.091H388.031V198.153H576.984V191.091Z" fill="#6C63FF"/>
<path opacity="0.5" d="M576.984 209.452H388.031V216.514H576.984V209.452Z" fill="#6C63FF"/>
<path opacity="0.4" d="M576.984 227.813H388.031V234.875H576.984V227.813Z" fill="#6C63FF"/>
<path opacity="0.4" d="M576.984 246.174H388.031V253.236H576.984V246.174Z" fill="#6C63FF"/>
<path opacity="0.3" d="M495.903 264.535H388.031V271.597H495.903V264.535Z" fill="#6C63FF"/>
<path opacity="0.3" d="M535.386 282.896H388.031V289.957H535.386V282.896Z" fill="#6C63FF"/>
</g>
<defs>
<linearGradient id="paint0_linear_66_3840" x1="192.946" y1="259.118" x2="343.84" y2="259.118" gradientUnits="userSpaceOnUse">
<stop stop-color="#808080" stop-opacity="0.25"/>
<stop offset="0.54" stop-color="#808080" stop-opacity="0.12"/>
<stop offset="1" stop-color="#808080" stop-opacity="0.1"/>
</linearGradient>
<linearGradient id="paint1_linear_66_3840" x1="246075" y1="280256" x2="246075" y2="77572.2" gradientUnits="userSpaceOnUse">
<stop stop-color="#808080" stop-opacity="0.25"/>
<stop offset="0.54" stop-color="#808080" stop-opacity="0.12"/>
<stop offset="1" stop-color="#808080" stop-opacity="0.1"/>
</linearGradient>
<clipPath id="clip0_66_3840">
<rect width="677" height="514" fill="white" transform="translate(119 9)"/>
</clipPath>
</defs>
</svg>
